<svg width="272" height="892" xmlns="http://www.w3.org/2000/svg" xmlns:xlink="http://www.w3.org/1999/xlink" xml:space="preserve" overflow="hidden"><defs><clipPath id="clip0"><rect x="0" y="0" width="272" height="892"/></clipPath><clipPath id="clip1"><rect x="0" y="0" width="271" height="892"/></clipPath><clipPath id="clip2"><rect x="0" y="0" width="271" height="893"/></clipPath><clipPath id="clip3"><rect x="0" y="0" width="271" height="893"/></clipPath></defs><g clip-path="url(#clip0)"><g clip-path="url(#clip1)"><g clip-path="url(#clip2)"><g clip-path="url(#clip3)"><path d="M73.6807 40.1895 70.3316 40.1895 70.3316 49.3203" stroke="#000000" stroke-width="0.669825" stroke-linecap="butt" stroke-linejoin="miter" stroke-miterlimit="10" stroke-opacity="1" fill="none" fill-rule="nonzero" transform="matrix(1 0 0 1.00052 0.0279094 0.0279239)"/><path d="M70.3316 52.8369 67.9872 48.1481 70.3316 49.3203 72.676 48.1481Z" stroke="#000000" stroke-width="0.669825" stroke-linecap="butt" stroke-linejoin="miter" stroke-miterlimit="10" stroke-opacity="1" fill="#000000" fill-rule="nonzero" fill-opacity="1" transform="matrix(1 0 0 1.00052 0.0279094 0.0279239)"/><path d="M30.1421 40.1895 43.5386 0 117.219 0 103.823 40.1895Z" stroke="#000000" stroke-width="0.669825" stroke-linecap="butt" stroke-linejoin="miter" stroke-miterlimit="10" stroke-opacity="1" fill="#FFFFFF" fill-rule="nonzero" fill-opacity="1" transform="matrix(1 0 0 1.00052 0.0279094 0.0279239)"/><text fill="#000000" fill-opacity="1" font-family="Helvetica,Helvetica_MSFontService,sans-serif" font-style="normal" font-variant="normal" font-weight="400" font-stretch="normal" font-size="144" text-anchor="start" direction="ltr" writing-mode="lr-tb" unicode-bidi="normal" text-decoration="none" transform="matrix(0.0558187 0 0 0.0558477 46.19 19)">Input left image</text><text fill="#000000" fill-opacity="1" font-family="Helvetica,Helvetica_MSFontService,sans-serif" font-style="normal" font-variant="normal" font-weight="400" font-stretch="normal" font-size="144" text-anchor="start" direction="ltr" writing-mode="lr-tb" unicode-bidi="normal" text-decoration="none" transform="matrix(0.0558187 0 0 0.0558477 45.9667 28)">and right image</text><path d="M70.3316 93.7755 70.3316 102.906" stroke="#000000" stroke-width="0.669825" stroke-linecap="butt" stroke-linejoin="miter" stroke-miterlimit="10" stroke-opacity="1" fill="none" fill-rule="nonzero" transform="matrix(1 0 0 1.00052 0.0279094 0.0279239)"/><path d="M70.3316 106.423 67.9872 101.734 70.3316 102.906 72.676 101.734Z" stroke="#000000" stroke-width="0.669825" stroke-linecap="butt" stroke-linejoin="miter" stroke-miterlimit="10" stroke-opacity="1" fill="#000000" fill-rule="nonzero" fill-opacity="1" transform="matrix(1 0 0 1.00052 0.0279094 0.0279239)"/><path d="M117.889 53.586C121.219 53.586 123.918 56.285 123.918 59.6144L123.918 87.7471C123.918 91.0765 121.219 93.7755 117.889 93.7755L22.774 93.7755C19.4446 93.7755 16.7456 91.0765 16.7456 87.7471L16.7456 59.6144C16.7456 56.285 19.4446 53.586 22.774 53.586Z" stroke="#000000" stroke-width="0.669825" stroke-linecap="butt" stroke-linejoin="miter" stroke-miterlimit="4" stroke-opacity="1" fill="#FFFFFF" fill-rule="nonzero" fill-opacity="1" transform="matrix(1 0 0 1.00052 0.0279094 0.0279239)"/><text fill="#000000" fill-opacity="1" font-family="Helvetica,Helvetica_MSFontService,sans-serif" font-style="normal" font-variant="normal" font-weight="400" font-stretch="normal" font-size="144" text-anchor="start" direction="ltr" writing-mode="lr-tb" unicode-bidi="normal" text-decoration="none" transform="matrix(0.0558187 0 0 0.0558477 30.8119 72)">Create a empty matrix</text><text fill="#000000" fill-opacity="1" font-family="Helvetica,Helvetica_MSFontService,sans-serif" font-style="normal" font-variant="normal" font-weight="400" font-stretch="normal" font-size="144" text-anchor="start" direction="ltr" writing-mode="lr-tb" unicode-bidi="normal" text-decoration="none" transform="matrix(0.0558187 0 0 0.0558477 23.416 82)">to store the disparity value</text><path d="M70.3316 174.154 70.3316 189.984" stroke="#000000" stroke-width="0.669825" stroke-linecap="butt" stroke-linejoin="miter" stroke-miterlimit="10" stroke-opacity="1" fill="none" fill-rule="nonzero" transform="matrix(1 0 0 1.00052 0.0279094 0.0279239)"/><path d="M70.3316 193.5 67.9872 188.811 70.3316 189.984 72.676 188.811Z" stroke="#000000" stroke-width="0.669825" stroke-linecap="butt" stroke-linejoin="miter" stroke-miterlimit="10" stroke-opacity="1" fill="#000000" fill-rule="nonzero" fill-opacity="1" transform="matrix(1 0 0 1.00052 0.0279094 0.0279239)"/><path d="M108.512 160.758C109.621 160.758 110.521 161.658 110.521 162.767L110.521 172.145C110.521 173.255 109.621 174.154 108.512 174.154L32.1516 174.154C31.0418 174.154 30.1421 173.255 30.1421 172.145L30.1421 162.767C30.1421 161.658 31.0418 160.758 32.1516 160.758Z" stroke="#000000" stroke-width="0.669825" stroke-linecap="butt" stroke-linejoin="miter" stroke-miterlimit="4" stroke-opacity="1" fill="#FFFFFF" fill-rule="nonzero" fill-opacity="1" transform="matrix(1 0 0 1.00052 0.0279094 0.0279239)"/><text fill="#000000" fill-opacity="1" font-family="Helvetica,Helvetica_MSFontService,sans-serif" font-style="normal" font-variant="normal" font-weight="400" font-stretch="normal" font-size="144" text-anchor="start" direction="ltr" writing-mode="lr-tb" unicode-bidi="normal" text-decoration="none" transform="matrix(0.0558187 0 0 0.0558477 64.8614 171)">i=0</text><path d="M70.3316 207.646 70.3316 223.475" stroke="#000000" stroke-width="0.669825" stroke-linecap="butt" stroke-linejoin="miter" stroke-miterlimit="10" stroke-opacity="1" fill="none" fill-rule="nonzero" transform="matrix(1 0 0 1.00052 0.0279094 0.0279239)"/><path d="M70.3316 226.991 67.9872 222.303 70.3316 223.475 72.676 222.303Z" stroke="#000000" stroke-width="0.669825" stroke-linecap="butt" stroke-linejoin="miter" stroke-miterlimit="10" stroke-opacity="1" fill="#000000" fill-rule="nonzero" fill-opacity="1" transform="matrix(1 0 0 1.00052 0.0279094 0.0279239)"/><path d="M108.512 194.249C109.621 194.249 110.521 195.149 110.521 196.259L110.521 205.636C110.521 206.746 109.621 207.646 108.512 207.646L32.1516 207.646C31.0418 207.646 30.1421 206.746 30.1421 205.636L30.1421 196.259C30.1421 195.149 31.0418 194.249 32.1516 194.249Z" stroke="#000000" stroke-width="0.669825" stroke-linecap="butt" stroke-linejoin="miter" stroke-miterlimit="4" stroke-opacity="1" fill="#FFFFFF" fill-rule="nonzero" fill-opacity="1" transform="matrix(1 0 0 1.00052 0.0279094 0.0279239)"/><text fill="#000000" fill-opacity="1" font-family="Helvetica,Helvetica_MSFontService,sans-serif" font-style="normal" font-variant="normal" font-weight="400" font-stretch="normal" font-size="144" text-anchor="start" direction="ltr" writing-mode="lr-tb" unicode-bidi="normal" text-decoration="none" transform="matrix(0.0558187 0 0 0.0558477 64.8614 204)">j=0</text><path d="M70.3316 267.93 70.3316 277.061" stroke="#000000" stroke-width="0.669825" stroke-linecap="butt" stroke-linejoin="miter" stroke-miterlimit="10" stroke-opacity="1" fill="none" fill-rule="nonzero" transform="matrix(1 0 0 1.00052 0.0279094 0.0279239)"/><path d="M70.3316 280.577 67.9872 275.889 70.3316 277.061 72.676 275.889Z" stroke="#000000" stroke-width="0.669825" stroke-linecap="butt" stroke-linejoin="miter" stroke-miterlimit="10" stroke-opacity="1" fill="#000000" fill-rule="nonzero" fill-opacity="1" transform="matrix(1 0 0 1.00052 0.0279094 0.0279239)"/><path d="M117.889 227.74C121.219 227.74 123.918 230.439 123.918 233.769L123.918 261.902C123.918 265.231 121.219 267.93 117.889 267.93L22.774 267.93C19.4446 267.93 16.7456 265.231 16.7456 261.902L16.7456 233.769C16.7456 230.439 19.4446 227.74 22.774 227.74Z" stroke="#000000" stroke-width="0.669825" stroke-linecap="butt" stroke-linejoin="miter" stroke-miterlimit="4" stroke-opacity="1" fill="#FFFFFF" fill-rule="nonzero" fill-opacity="1" transform="matrix(1 0 0 1.00052 0.0279094 0.0279239)"/><text fill="#000000" fill-opacity="1" font-family="Helvetica,Helvetica_MSFontService,sans-serif" font-style="normal" font-variant="normal" font-weight="400" font-stretch="normal" font-size="144" text-anchor="start" direction="ltr" writing-mode="lr-tb" unicode-bidi="normal" text-decoration="none" transform="matrix(0.0558187 0 0 0.0558477 30.5608 242)">Define an square area</text><text fill="#000000" fill-opacity="1" font-family="Helvetica,Helvetica_MSFontService,sans-serif" font-style="normal" font-variant="normal" font-weight="400" font-stretch="normal" font-size="144" text-anchor="start" direction="ltr" writing-mode="lr-tb" unicode-bidi="normal" text-decoration="none" transform="matrix(0.0558187 0 0 0.0558477 26.0953 251)">centered at (i,j) in the left</text><text fill="#000000" fill-opacity="1" font-family="Helvetica,Helvetica_MSFontService,sans-serif" font-style="normal" font-variant="normal" font-weight="400" font-stretch="normal" font-size="144" text-anchor="start" direction="ltr" writing-mode="lr-tb" unicode-bidi="normal" text-decoration="none" transform="matrix(0.0558187 0 0 0.0558477 59.3911 261)">image</text><path d="M70.3316 294.723 70.3316 303.854" stroke="#000000" stroke-width="0.669825" stroke-linecap="butt" stroke-linejoin="miter" stroke-miterlimit="10" stroke-opacity="1" fill="none" fill-rule="nonzero" transform="matrix(1 0 0 1.00052 0.0279094 0.0279239)"/><path d="M70.3316 307.37 67.9872 302.682 70.3316 303.854 72.676 302.682Z" stroke="#000000" stroke-width="0.669825" stroke-linecap="butt" stroke-linejoin="miter" stroke-miterlimit="10" stroke-opacity="1" fill="#000000" fill-rule="nonzero" fill-opacity="1" transform="matrix(1 0 0 1.00052 0.0279094 0.0279239)"/><path d="M108.512 281.326C109.621 281.326 110.521 282.226 110.521 283.336L110.521 292.714C110.521 293.823 109.621 294.723 108.512 294.723L32.1516 294.723C31.0418 294.723 30.1421 293.823 30.1421 292.714L30.1421 283.336C30.1421 282.226 31.0418 281.326 32.1516 281.326Z" stroke="#000000" stroke-width="0.669825" stroke-linecap="butt" stroke-linejoin="miter" stroke-miterlimit="4" stroke-opacity="1" fill="#FFFFFF" fill-rule="nonzero" fill-opacity="1" transform="matrix(1 0 0 1.00052 0.0279094 0.0279239)"/><text fill="#000000" fill-opacity="1" font-family="Helvetica,Helvetica_MSFontService,sans-serif" font-style="normal" font-variant="normal" font-weight="400" font-stretch="normal" font-size="144" text-anchor="start" direction="ltr" writing-mode="lr-tb" unicode-bidi="normal" text-decoration="none" transform="matrix(0.0558187 0 0 0.0558477 55.9304 292)">step = 0</text><path d="M70.3316 348.309 70.3316 384.233" stroke="#000000" stroke-width="0.669825" stroke-linecap="butt" stroke-linejoin="miter" stroke-miterlimit="10" stroke-opacity="1" fill="none" fill-rule="nonzero" transform="matrix(1 0 0 1.00052 0.0279094 0.0279239)"/><path d="M70.3316 387.749 67.9872 383.061 70.3316 384.233 72.676 383.061Z" stroke="#000000" stroke-width="0.669825" stroke-linecap="butt" stroke-linejoin="miter" stroke-miterlimit="10" stroke-opacity="1" fill="#000000" fill-rule="nonzero" fill-opacity="1" transform="matrix(1 0 0 1.00052 0.0279094 0.0279239)"/><path d="M117.889 308.119C121.219 308.119 123.918 310.818 123.918 314.148L123.918 342.281C123.918 345.61 121.219 348.309 117.889 348.309L22.774 348.309C19.4446 348.309 16.7456 345.61 16.7456 342.281L16.7456 314.148C16.7456 310.818 19.4446 308.119 22.774 308.119Z" stroke="#000000" stroke-width="0.669825" stroke-linecap="butt" stroke-linejoin="miter" stroke-miterlimit="4" stroke-opacity="1" fill="#FFFFFF" fill-rule="nonzero" fill-opacity="1" transform="matrix(1 0 0 1.00052 0.0279094 0.0279239)"/><text fill="#000000" fill-opacity="1" font-family="Helvetica,Helvetica_MSFontService,sans-serif" font-style="normal" font-variant="normal" font-weight="400" font-stretch="normal" font-size="144" text-anchor="start" direction="ltr" writing-mode="lr-tb" unicode-bidi="normal" text-decoration="none" transform="matrix(0.0558187 0 0 0.0558477 30.5608 322)">Define an square area</text><text fill="#000000" fill-opacity="1" font-family="Helvetica,Helvetica_MSFontService,sans-serif" font-style="normal" font-variant="normal" font-weight="400" font-stretch="normal" font-size="144" text-anchor="start" direction="ltr" writing-mode="lr-tb" unicode-bidi="normal" text-decoration="none" transform="matrix(0.0558187 0 0 0.0558477 22.5229 332)">centered at (i, j-step) in the</text><text fill="#000000" fill-opacity="1" font-family="Helvetica,Helvetica_MSFontService,sans-serif" font-style="normal" font-variant="normal" font-weight="400" font-stretch="normal" font-size="144" text-anchor="start" direction="ltr" writing-mode="lr-tb" unicode-bidi="normal" text-decoration="none" transform="matrix(0.0558187 0 0 0.0558477 50.4601 341)">right image</text><path d="M70.3316 428.688 70.3316 457.914" stroke="#000000" stroke-width="0.669825" stroke-linecap="butt" stroke-linejoin="miter" stroke-miterlimit="10" stroke-opacity="1" fill="none" fill-rule="nonzero" transform="matrix(1 0 0 1.00052 0.0279094 0.0279239)"/><path d="M70.3316 461.43 67.9872 456.741 70.3316 457.914 72.676 456.741Z" stroke="#000000" stroke-width="0.669825" stroke-linecap="butt" stroke-linejoin="miter" stroke-miterlimit="10" stroke-opacity="1" fill="#000000" fill-rule="nonzero" fill-opacity="1" transform="matrix(1 0 0 1.00052 0.0279094 0.0279239)"/><path d="M111.191 388.498C114.52 388.498 117.219 391.197 117.219 394.527L117.219 422.66C117.219 425.989 114.52 428.688 111.191 428.688L29.4723 428.688C26.1429 428.688 23.4439 425.989 23.4439 422.66L23.4439 394.527C23.4439 391.197 26.1429 388.498 29.4723 388.498Z" stroke="#B85450" stroke-width="0.669825" stroke-linecap="butt" stroke-linejoin="miter" stroke-miterlimit="4" stroke-opacity="1" fill="#F8CECC" fill-rule="nonzero" fill-opacity="1" transform="matrix(1 0 0 1.00052 0.0279094 0.0279239)"/><text fill="#000000" fill-opacity="1" font-family="Helvetica,Helvetica_MSFontService,sans-serif" font-style="normal" font-variant="normal" font-weight="400" font-stretch="normal" font-size="192" text-anchor="start" direction="ltr" writing-mode="lr-tb" unicode-bidi="normal" text-decoration="none" transform="matrix(0.0558187 0 0 0.0558477 29.5281 413)">The cost function</text><path d="M70.3316 147.361 70.3316 156.492" stroke="#000000" stroke-width="0.669825" stroke-linecap="butt" stroke-linejoin="miter" stroke-miterlimit="10" stroke-opacity="1" fill="none" fill-rule="nonzero" transform="matrix(1 0 0 1.00052 0.0279094 0.0279239)"/><path d="M70.3316 160.009 67.9872 155.32 70.3316 156.492 72.676 155.32Z" stroke="#000000" stroke-width="0.669825" stroke-linecap="butt" stroke-linejoin="miter" stroke-miterlimit="10" stroke-opacity="1" fill="#000000" fill-rule="nonzero" fill-opacity="1" transform="matrix(1 0 0 1.00052 0.0279094 0.0279239)"/><path d="M117.889 107.172C121.219 107.172 123.918 109.871 123.918 113.2L123.918 141.333C123.918 144.662 121.219 147.361 117.889 147.361L22.774 147.361C19.4446 147.361 16.7456 144.662 16.7456 141.333L16.7456 113.2C16.7456 109.871 19.4446 107.172 22.774 107.172Z" stroke="#000000" stroke-width="0.669825" stroke-linecap="butt" stroke-linejoin="miter" stroke-miterlimit="4" stroke-opacity="1" fill="#FFFFFF" fill-rule="nonzero" fill-opacity="1" transform="matrix(1 0 0 1.00052 0.0279094 0.0279239)"/><text fill="#000000" fill-opacity="1" font-family="Helvetica,Helvetica_MSFontService,sans-serif" font-style="normal" font-variant="normal" font-weight="400" font-stretch="normal" font-size="144" text-anchor="start" direction="ltr" writing-mode="lr-tb" unicode-bidi="normal" text-decoration="none" transform="matrix(0.0558187 0 0 0.0558477 22.2996 121)">Create a empty list to store</text><text fill="#000000" fill-opacity="1" font-family="Helvetica,Helvetica_MSFontService,sans-serif" font-style="normal" font-variant="normal" font-weight="400" font-stretch="normal" font-size="144" text-anchor="start" direction="ltr" writing-mode="lr-tb" unicode-bidi="normal" text-decoration="none" transform="matrix(0.0558187 0 0 0.0558477 31.4539 131)">the SAD with different</text><text fill="#000000" fill-opacity="1" font-family="Helvetica,Helvetica_MSFontService,sans-serif" font-style="normal" font-variant="normal" font-weight="400" font-stretch="normal" font-size="144" text-anchor="start" direction="ltr" writing-mode="lr-tb" unicode-bidi="normal" text-decoration="none" transform="matrix(0.0558187 0 0 0.0558477 30.1142 140)">disparity in one search</text><path d="M140.663 529.162 154.111 529.162 154.111 328.214 128.183 328.214" stroke="#000000" stroke-width="0.669825" stroke-linecap="butt" stroke-linejoin="miter" stroke-miterlimit="10" stroke-opacity="1" fill="none" fill-rule="nonzero" transform="matrix(1 0 0 1.00052 0.0279094 0.0279239)"/><path d="M124.667 328.214 129.355 325.87 128.183 328.214 129.355 330.559Z" stroke="#000000" stroke-width="0.669825" stroke-linecap="butt" stroke-linejoin="miter" stroke-miterlimit="10" stroke-opacity="1" fill="#000000" fill-rule="nonzero" fill-opacity="1" transform="matrix(1 0 0 1.00052 0.0279094 0.0279239)"/><path d="M70.3316 555.955 70.3316 565.087" stroke="#000000" stroke-width="0.669825" stroke-linecap="butt" stroke-linejoin="miter" stroke-miterlimit="10" stroke-opacity="1" fill="none" fill-rule="nonzero" transform="matrix(1 0 0 1.00052 0.0279094 0.0279239)"/><path d="M70.3316 568.603 67.9872 563.914 70.3316 565.087 72.676 563.914Z" stroke="#000000" stroke-width="0.669825" stroke-linecap="butt" stroke-linejoin="miter" stroke-miterlimit="10" stroke-opacity="1" fill="#000000" fill-rule="nonzero" fill-opacity="1" transform="matrix(1 0 0 1.00052 0.0279094 0.0279239)"/><path d="M70.3316 502.369 140.663 529.162 70.3316 555.955 0 529.162Z" stroke="#000000" stroke-width="0.669825" stroke-linecap="butt" stroke-linejoin="miter" stroke-miterlimit="10" stroke-opacity="1" fill="#FFFFFF" fill-rule="nonzero" fill-opacity="1" transform="matrix(1 0 0 1.00052 0.0279094 0.0279239)"/><text fill="#000000" fill-opacity="1" font-family="Helvetica,Helvetica_MSFontService,sans-serif" font-style="normal" font-variant="normal" font-weight="400" font-stretch="normal" font-size="144" text-anchor="start" direction="ltr" writing-mode="lr-tb" unicode-bidi="normal" text-decoration="none" transform="matrix(0.0558187 0 0 0.0558477 31.3422 533)">step &lt; search_range?</text><path d="M140.663 676.523 210.995 676.523 210.995 247.835 128.183 247.835" stroke="#000000" stroke-width="0.669825" stroke-linecap="butt" stroke-linejoin="miter" stroke-miterlimit="10" stroke-opacity="1" fill="none" fill-rule="nonzero" transform="matrix(1 0 0 1.00052 0.0279094 0.0279239)"/><path d="M124.667 247.835 129.355 245.491 128.183 247.835 129.355 250.18Z" stroke="#000000" stroke-width="0.669825" stroke-linecap="butt" stroke-linejoin="miter" stroke-miterlimit="10" stroke-opacity="1" fill="#000000" fill-rule="nonzero" fill-opacity="1" transform="matrix(1 0 0 1.00052 0.0279094 0.0279239)"/><path d="M70.3316 703.316 70.3316 712.448" stroke="#000000" stroke-width="0.669825" stroke-linecap="butt" stroke-linejoin="miter" stroke-miterlimit="10" stroke-opacity="1" fill="none" fill-rule="nonzero" transform="matrix(1 0 0 1.00052 0.0279094 0.0279239)"/><path d="M70.3316 715.965 67.9872 711.276 70.3316 712.448 72.676 711.276Z" stroke="#000000" stroke-width="0.669825" stroke-linecap="butt" stroke-linejoin="miter" stroke-miterlimit="10" stroke-opacity="1" fill="#000000" fill-rule="nonzero" fill-opacity="1" transform="matrix(1 0 0 1.00052 0.0279094 0.0279239)"/><path d="M70.3316 649.73 140.663 676.523 70.3316 703.316 0 676.523Z" stroke="#000000" stroke-width="0.669825" stroke-linecap="butt" stroke-linejoin="miter" stroke-miterlimit="10" stroke-opacity="1" fill="#FFFFFF" fill-rule="nonzero" fill-opacity="1" transform="matrix(1 0 0 1.00052 0.0279094 0.0279239)"/><text fill="#000000" fill-opacity="1" font-family="Helvetica,Helvetica_MSFontService,sans-serif" font-style="normal" font-variant="normal" font-weight="400" font-stretch="normal" font-size="144" text-anchor="start" direction="ltr" writing-mode="lr-tb" unicode-bidi="normal" text-decoration="none" transform="matrix(0.0558187 0 0 0.0558477 10.5777 680)">j &lt; width - kernel - search_range?</text><path d="M140.663 776.997 264.581 776.997 264.581 247.835 128.183 247.835" stroke="#000000" stroke-width="0.669825" stroke-linecap="butt" stroke-linejoin="miter" stroke-miterlimit="10" stroke-opacity="1" fill="none" fill-rule="nonzero" transform="matrix(1 0 0 1.00052 0.0279094 0.0279239)"/><path d="M124.667 247.835 129.355 245.491 128.183 247.835 129.355 250.18Z" stroke="#000000" stroke-width="0.669825" stroke-linecap="butt" stroke-linejoin="miter" stroke-miterlimit="10" stroke-opacity="1" fill="#000000" fill-rule="nonzero" fill-opacity="1" transform="matrix(1 0 0 1.00052 0.0279094 0.0279239)"/><path d="M70.3316 803.79 70.3316 812.922" stroke="#000000" stroke-width="0.669825" stroke-linecap="butt" stroke-linejoin="miter" stroke-miterlimit="10" stroke-opacity="1" fill="none" fill-rule="nonzero" transform="matrix(1 0 0 1.00052 0.0279094 0.0279239)"/><path d="M70.3316 816.438 67.9872 811.75 70.3316 812.922 72.676 811.75Z" stroke="#000000" stroke-width="0.669825" stroke-linecap="butt" stroke-linejoin="miter" stroke-miterlimit="10" stroke-opacity="1" fill="#000000" fill-rule="nonzero" fill-opacity="1" transform="matrix(1 0 0 1.00052 0.0279094 0.0279239)"/><path d="M70.3316 750.204 140.663 776.997 70.3316 803.79 0 776.997Z" stroke="#000000" stroke-width="0.669825" stroke-linecap="butt" stroke-linejoin="miter" stroke-miterlimit="10" stroke-opacity="1" fill="#FFFFFF" fill-rule="nonzero" fill-opacity="1" transform="matrix(1 0 0 1.00052 0.0279094 0.0279239)"/><text fill="#000000" fill-opacity="1" font-family="Helvetica,Helvetica_MSFontService,sans-serif" font-style="normal" font-variant="normal" font-weight="400" font-stretch="normal" font-size="144" text-anchor="start" direction="ltr" writing-mode="lr-tb" unicode-bidi="normal" text-decoration="none" transform="matrix(0.0558187 0 0 0.0558477 37.1474 781)">i &lt; height - kernel?</text><path d="M70.3316 609.541 70.3316 618.673" stroke="#000000" stroke-width="0.669825" stroke-linecap="butt" stroke-linejoin="miter" stroke-miterlimit="10" stroke-opacity="1" fill="none" fill-rule="nonzero" transform="matrix(1 0 0 1.00052 0.0279094 0.0279239)"/><path d="M70.3316 622.189 67.9872 617.5 70.3316 618.673 72.676 617.5Z" stroke="#000000" stroke-width="0.669825" stroke-linecap="butt" stroke-linejoin="miter" stroke-miterlimit="10" stroke-opacity="1" fill="#000000" fill-rule="nonzero" fill-opacity="1" transform="matrix(1 0 0 1.00052 0.0279094 0.0279239)"/><path d="M124.587 569.351C127.917 569.351 130.616 572.05 130.616 575.38L130.616 603.512C130.616 606.842 127.917 609.541 124.587 609.541L16.0758 609.541C12.7464 609.541 10.0474 606.842 10.0474 603.512L10.0474 575.38C10.0474 572.05 12.7464 569.351 16.0758 569.351Z" stroke="#000000" stroke-width="0.669825" stroke-linecap="butt" stroke-linejoin="miter" stroke-miterlimit="4" stroke-opacity="1" fill="#FFFFFF" fill-rule="nonzero" fill-opacity="1" transform="matrix(1 0 0 1.00052 0.0279094 0.0279239)"/><text fill="#000000" fill-opacity="1" font-family="Helvetica,Helvetica_MSFontService,sans-serif" font-style="normal" font-variant="normal" font-weight="400" font-stretch="normal" font-size="144" text-anchor="start" direction="ltr" writing-mode="lr-tb" unicode-bidi="normal" text-decoration="none" transform="matrix(0.0558187 0 0 0.0558477 12.0289 584)">Find the minimum SAD in the list</text><text fill="#000000" fill-opacity="1" font-family="Helvetica,Helvetica_MSFontService,sans-serif" font-style="normal" font-variant="normal" font-weight="400" font-stretch="normal" font-size="144" text-anchor="start" direction="ltr" writing-mode="lr-tb" unicode-bidi="normal" text-decoration="none" transform="matrix(0.0558187 0 0 0.0558477 16.0479 593)">and calculate the disparity and</text><text fill="#000000" fill-opacity="1" font-family="Helvetica,Helvetica_MSFontService,sans-serif" font-style="normal" font-variant="normal" font-weight="400" font-stretch="normal" font-size="144" text-anchor="start" direction="ltr" writing-mode="lr-tb" unicode-bidi="normal" text-decoration="none" transform="matrix(0.0558187 0 0 0.0558477 20.9599 602)">fill it into the disparity matrix</text><path d="M106.502 864.074C108.722 864.074 110.521 865.873 110.521 868.093L110.521 886.848C110.521 889.068 108.722 890.867 106.502 890.867L34.1611 890.867C31.9415 890.867 30.1421 889.068 30.1421 886.848L30.1421 868.093C30.1421 865.873 31.9415 864.074 34.1611 864.074Z" stroke="#000000" stroke-width="0.669825" stroke-linecap="butt" stroke-linejoin="miter" stroke-miterlimit="4" stroke-opacity="1" fill="#FFFFFF" fill-rule="nonzero" fill-opacity="1" transform="matrix(1 0 0 1.00052 0.0279094 0.0279239)"/><text fill="#000000" fill-opacity="1" font-family="Helvetica,Helvetica_MSFontService,sans-serif" font-style="normal" font-variant="normal" font-weight="400" font-stretch="normal" font-size="144" text-anchor="start" direction="ltr" writing-mode="lr-tb" unicode-bidi="normal" text-decoration="none" transform="matrix(0.0558187 0 0 0.0558477 38.3754 877)">Save the disparity</text><text fill="#000000" fill-opacity="1" font-family="Helvetica,Helvetica_MSFontService,sans-serif" font-style="normal" font-variant="normal" font-weight="400" font-stretch="normal" font-size="144" text-anchor="start" direction="ltr" writing-mode="lr-tb" unicode-bidi="normal" text-decoration="none" transform="matrix(0.0558187 0 0 0.0558477 39.4918 886)">map as an image</text><path d="M70.3316 636.334 70.3316 645.466" stroke="#000000" stroke-width="0.669825" stroke-linecap="butt" stroke-linejoin="miter" stroke-miterlimit="10" stroke-opacity="1" fill="none" fill-rule="nonzero" transform="matrix(1 0 0 1.00052 0.0279094 0.0279239)"/><path d="M70.3316 648.982 67.9872 644.293 70.3316 645.466 72.676 644.293Z" stroke="#000000" stroke-width="0.669825" stroke-linecap="butt" stroke-linejoin="miter" stroke-miterlimit="10" stroke-opacity="1" fill="#000000" fill-rule="nonzero" fill-opacity="1" transform="matrix(1 0 0 1.00052 0.0279094 0.0279239)"/><path d="M108.512 622.937C109.621 622.937 110.521 623.837 110.521 624.947L110.521 634.324C110.521 635.434 109.621 636.334 108.512 636.334L32.1516 636.334C31.0418 636.334 30.1421 635.434 30.1421 634.324L30.1421 624.947C30.1421 623.837 31.0418 622.937 32.1516 622.937Z" stroke="#000000" stroke-width="0.669825" stroke-linecap="butt" stroke-linejoin="miter" stroke-miterlimit="4" stroke-opacity="1" fill="#FFFFFF" fill-rule="nonzero" fill-opacity="1" transform="matrix(1 0 0 1.00052 0.0279094 0.0279239)"/><text fill="#000000" fill-opacity="1" font-family="Helvetica,Helvetica_MSFontService,sans-serif" font-style="normal" font-variant="normal" font-weight="400" font-stretch="normal" font-size="144" text-anchor="start" direction="ltr" writing-mode="lr-tb" unicode-bidi="normal" text-decoration="none" transform="matrix(0.0558187 0 0 0.0558477 64.7497 633)">j++</text><path d="M70.3316 736.807 70.3316 745.939" stroke="#000000" stroke-width="0.669825" stroke-linecap="butt" stroke-linejoin="miter" stroke-miterlimit="10" stroke-opacity="1" fill="none" fill-rule="nonzero" transform="matrix(1 0 0 1.00052 0.0279094 0.0279239)"/><path d="M70.3316 749.456 67.9872 744.767 70.3316 745.939 72.676 744.767Z" stroke="#000000" stroke-width="0.669825" stroke-linecap="butt" stroke-linejoin="miter" stroke-miterlimit="10" stroke-opacity="1" fill="#000000" fill-rule="nonzero" fill-opacity="1" transform="matrix(1 0 0 1.00052 0.0279094 0.0279239)"/><path d="M107.507 716.713C109.172 716.713 110.521 718.062 110.521 719.727L110.521 733.793C110.521 735.458 109.172 736.807 107.507 736.807L33.1563 736.807C31.4916 736.807 30.1421 735.458 30.1421 733.793L30.1421 719.727C30.1421 718.062 31.4916 716.713 33.1563 716.713Z" stroke="#000000" stroke-width="0.669825" stroke-linecap="butt" stroke-linejoin="miter" stroke-miterlimit="4" stroke-opacity="1" fill="#FFFFFF" fill-rule="nonzero" fill-opacity="1" transform="matrix(1 0 0 1.00052 0.0279094 0.0279239)"/><text fill="#000000" fill-opacity="1" font-family="Helvetica,Helvetica_MSFontService,sans-serif" font-style="normal" font-variant="normal" font-weight="400" font-stretch="normal" font-size="144" text-anchor="start" direction="ltr" writing-mode="lr-tb" unicode-bidi="normal" text-decoration="none" transform="matrix(0.0558187 0 0 0.0558477 64.7497 730)">i++</text><path d="M70.3316 482.274 70.3316 498.103" stroke="#000000" stroke-width="0.669825" stroke-linecap="butt" stroke-linejoin="miter" stroke-miterlimit="10" stroke-opacity="1" fill="none" fill-rule="nonzero" transform="matrix(1 0 0 1.00052 0.0279094 0.0279239)"/><path d="M70.3316 501.62 67.9872 496.931 70.3316 498.103 72.676 496.931Z" stroke="#000000" stroke-width="0.669825" stroke-linecap="butt" stroke-linejoin="miter" stroke-miterlimit="10" stroke-opacity="1" fill="#000000" fill-rule="nonzero" fill-opacity="1" transform="matrix(1 0 0 1.00052 0.0279094 0.0279239)"/><path d="M107.507 462.179C109.172 462.179 110.521 463.529 110.521 465.193L110.521 479.26C110.521 480.924 109.172 482.274 107.507 482.274L33.1563 482.274C31.4916 482.274 30.1421 480.924 30.1421 479.26L30.1421 465.193C30.1421 463.529 31.4916 462.179 33.1563 462.179Z" stroke="#000000" stroke-width="0.669825" stroke-linecap="butt" stroke-linejoin="miter" stroke-miterlimit="4" stroke-opacity="1" fill="#FFFFFF" fill-rule="nonzero" fill-opacity="1" transform="matrix(1 0 0 1.00052 0.0279094 0.0279239)"/><text fill="#000000" fill-opacity="1" font-family="Helvetica,Helvetica_MSFontService,sans-serif" font-style="normal" font-variant="normal" font-weight="400" font-stretch="normal" font-size="144" text-anchor="start" direction="ltr" writing-mode="lr-tb" unicode-bidi="normal" text-decoration="none" transform="matrix(0.0558187 0 0 0.0558477 58.0515 476)">step++</text><path d="M70.3316 843.979 70.3316 859.81" stroke="#000000" stroke-width="0.669825" stroke-linecap="butt" stroke-linejoin="miter" stroke-miterlimit="10" stroke-opacity="1" fill="none" fill-rule="nonzero" transform="matrix(1 0 0 1.00052 0.0279094 0.0279239)"/><path d="M70.3316 863.326 67.9872 858.637 70.3316 859.81 72.676 858.637Z" stroke="#000000" stroke-width="0.669825" stroke-linecap="butt" stroke-linejoin="miter" stroke-miterlimit="10" stroke-opacity="1" fill="#000000" fill-rule="nonzero" fill-opacity="1" transform="matrix(1 0 0 1.00052 0.0279094 0.0279239)"/><path d="M106.502 817.186C108.722 817.186 110.521 818.986 110.521 821.205L110.521 839.96C110.521 842.18 108.722 843.979 106.502 843.979L34.1611 843.979C31.9415 843.979 30.1421 842.18 30.1421 839.96L30.1421 821.205C30.1421 818.986 31.9415 817.186 34.1611 817.186Z" stroke="#000000" stroke-width="0.669825" stroke-linecap="butt" stroke-linejoin="miter" stroke-miterlimit="4" stroke-opacity="1" fill="#FFFFFF" fill-rule="nonzero" fill-opacity="1" transform="matrix(1 0 0 1.00052 0.0279094 0.0279239)"/><text fill="#000000" fill-opacity="1" font-family="Helvetica,Helvetica_MSFontService,sans-serif" font-style="normal" font-variant="normal" font-weight="400" font-stretch="normal" font-size="12" text-anchor="start" direction="ltr" writing-mode="lr-tb" unicode-bidi="normal" text-decoration="none" transform="matrix(0.669825 0 0 0.670173 31.8167 834)">Map the disparity to...</text><text fill="#000000" fill-opacity="1" font-family="Arial,Arial_MSFontService,sans-serif" font-style="normal" font-variant="normal" font-weight="400" font-stretch="normal" font-size="10" text-anchor="start" direction="ltr" writing-mode="lr-tb" unicode-bidi="normal" text-decoration="none" transform="matrix(0.0558187 0 0 0.0558477 131.565 892)">Text is not SVG - cannot display</text></g></g></g></g></svg>